<svg id="visual" viewBox="0 0 960 540" width="960" height="540" xmlns="http://www.w3.org/2000/svg" xmlns:xlink="http://www.w3.org/1999/xlink" version="1.1"><rect x="0" y="0" width="960" height="540" fill="#001220"></rect><path d="M0 203L20 199.2C40 195.3 80 187.7 120 181.7C160 175.7 200 171.3 240 172.5C280 173.7 320 180.3 360 189.7C400 199 440 211 480 212.5C520 214 560 205 600 212C640 219 680 242 720 233.5C760 225 800 185 840 179C880 173 920 201 940 215L960 229L960 541L940 541C920 541 880 541 840 541C800 541 760 541 720 541C680 541 640 541 600 541C560 541 520 541 480 541C440 541 400 541 360 541C320 541 280 541 240 541C200 541 160 541 120 541C80 541 40 541 20 541L0 541Z" fill="#0066ff"></path><path d="M0 290L20 284.2C40 278.3 80 266.7 120 260.3C160 254 200 253 240 258.8C280 264.7 320 277.3 360 281.7C400 286 440 282 480 277.7C520 273.3 560 268.7 600 269.7C640 270.7 680 277.3 720 280.3C760 283.3 800 282.7 840 288.2C880 293.7 920 305.3 940 311.2L960 317L960 541L940 541C920 541 880 541 840 541C800 541 760 541 720 541C680 541 640 541 600 541C560 541 520 541 480 541C440 541 400 541 360 541C320 541 280 541 240 541C200 541 160 541 120 541C80 541 40 541 20 541L0 541Z" fill="#004db1"></path><path d="M0 388L20 376.8C40 365.7 80 343.3 120 342.3C160 341.3 200 361.7 240 363C280 364.3 320 346.7 360 338.8C400 331 440 333 480 341.5C520 350 560 365 600 362.2C640 359.3 680 338.7 720 341.2C760 343.7 800 369.3 840 371.2C880 373 920 351 940 340L960 329L960 541L940 541C920 541 880 541 840 541C800 541 760 541 720 541C680 541 640 541 600 541C560 541 520 541 480 541C440 541 400 541 360 541C320 541 280 541 240 541C200 541 160 541 120 541C80 541 40 541 20 541L0 541Z" fill="#003266"></path><path d="M0 451L20 449C40 447 80 443 120 441.7C160 440.3 200 441.7 240 445.5C280 449.3 320 455.7 360 449.8C400 444 440 426 480 423.8C520 421.7 560 435.3 600 439.7C640 444 680 439 720 437.3C760 435.7 800 437.3 840 439.5C880 441.7 920 444.3 940 445.7L960 447L960 541L940 541C920 541 880 541 840 541C800 541 760 541 720 541C680 541 640 541 600 541C560 541 520 541 480 541C440 541 400 541 360 541C320 541 280 541 240 541C200 541 160 541 120 541C80 541 40 541 20 541L0 541Z" fill="#001220"></path></svg>