<svg id="visual" viewBox="0 0 960 540" width="960" height="540" xmlns="http://www.w3.org/2000/svg" xmlns:xlink="http://www.w3.org/1999/xlink" version="1.1"><rect x="0" y="0" width="960" height="540" fill="#001220"></rect><path d="M0 166L20 172.2C40 178.3 80 190.7 120 198.3C160 206 200 209 240 215.5C280 222 320 232 360 228.5C400 225 440 208 480 198.3C520 188.7 560 186.3 600 180.8C640 175.3 680 166.7 720 179.8C760 193 800 228 840 230C880 232 920 201 940 185.5L960 170L960 541L940 541C920 541 880 541 840 541C800 541 760 541 720 541C680 541 640 541 600 541C560 541 520 541 480 541C440 541 400 541 360 541C320 541 280 541 240 541C200 541 160 541 120 541C80 541 40 541 20 541L0 541Z" fill="#0066ff"></path><path d="M0 330L20 316.3C40 302.7 80 275.3 120 274.2C160 273 200 298 240 296.5C280 295 320 267 360 256.7C400 246.3 440 253.7 480 267.8C520 282 560 303 600 298.3C640 293.7 680 263.3 720 251.7C760 240 800 247 840 247.5C880 248 920 242 940 239L960 236L960 541L940 541C920 541 880 541 840 541C800 541 760 541 720 541C680 541 640 541 600 541C560 541 520 541 480 541C440 541 400 541 360 541C320 541 280 541 240 541C200 541 160 541 120 541C80 541 40 541 20 541L0 541Z" fill="#004db1"></path><path d="M0 395L20 384.7C40 374.3 80 353.7 120 343C160 332.3 200 331.7 240 340.2C280 348.7 320 366.3 360 371.3C400 376.3 440 368.7 480 361.3C520 354 560 347 600 351.5C640 356 680 372 720 375.5C760 379 800 370 840 364.3C880 358.7 920 356.3 940 355.2L960 354L960 541L940 541C920 541 880 541 840 541C800 541 760 541 720 541C680 541 640 541 600 541C560 541 520 541 480 541C440 541 400 541 360 541C320 541 280 541 240 541C200 541 160 541 120 541C80 541 40 541 20 541L0 541Z" fill="#003266"></path><path d="M0 439L20 442C40 445 80 451 120 446.5C160 442 200 427 240 427.5C280 428 320 444 360 444.3C400 444.7 440 429.3 480 427.7C520 426 560 438 600 440C640 442 680 434 720 431.5C760 429 800 432 840 437.5C880 443 920 451 940 455L960 459L960 541L940 541C920 541 880 541 840 541C800 541 760 541 720 541C680 541 640 541 600 541C560 541 520 541 480 541C440 541 400 541 360 541C320 541 280 541 240 541C200 541 160 541 120 541C80 541 40 541 20 541L0 541Z" fill="#001220"></path></svg>