<svg id="visual" viewBox="0 0 960 540" width="960" height="540" xmlns="http://www.w3.org/2000/svg" xmlns:xlink="http://www.w3.org/1999/xlink" version="1.1"><rect x="0" y="0" width="960" height="540" fill="#001220"></rect><path d="M0 232L20 222.2C40 212.3 80 192.7 120 183.2C160 173.7 200 174.3 240 178C280 181.7 320 188.3 360 195C400 201.7 440 208.3 480 207.2C520 206 560 197 600 190.8C640 184.7 680 181.3 720 190.5C760 199.7 800 221.3 840 228.2C880 235 920 227 940 223L960 219L960 541L940 541C920 541 880 541 840 541C800 541 760 541 720 541C680 541 640 541 600 541C560 541 520 541 480 541C440 541 400 541 360 541C320 541 280 541 240 541C200 541 160 541 120 541C80 541 40 541 20 541L0 541Z" fill="#0066ff"></path><path d="M0 275L20 272.2C40 269.3 80 263.7 120 263.7C160 263.7 200 269.3 240 275.7C280 282 320 289 360 291.7C400 294.3 440 292.7 480 285.2C520 277.7 560 264.3 600 258C640 251.7 680 252.3 720 256.5C760 260.7 800 268.3 840 272.3C880 276.3 920 276.7 940 276.8L960 277L960 541L940 541C920 541 880 541 840 541C800 541 760 541 720 541C680 541 640 541 600 541C560 541 520 541 480 541C440 541 400 541 360 541C320 541 280 541 240 541C200 541 160 541 120 541C80 541 40 541 20 541L0 541Z" fill="#004db1"></path><path d="M0 354L20 355.5C40 357 80 360 120 364C160 368 200 373 240 370.7C280 368.3 320 358.7 360 354.2C400 349.7 440 350.3 480 351.3C520 352.3 560 353.7 600 357C640 360.3 680 365.7 720 365C760 364.3 800 357.7 840 355.5C880 353.3 920 355.7 940 356.8L960 358L960 541L940 541C920 541 880 541 840 541C800 541 760 541 720 541C680 541 640 541 600 541C560 541 520 541 480 541C440 541 400 541 360 541C320 541 280 541 240 541C200 541 160 541 120 541C80 541 40 541 20 541L0 541Z" fill="#003266"></path><path d="M0 414L20 414C40 414 80 414 120 416.8C160 419.7 200 425.3 240 430.7C280 436 320 441 360 444.3C400 447.7 440 449.3 480 447C520 444.7 560 438.3 600 434C640 429.7 680 427.3 720 426.2C760 425 800 425 840 426C880 427 920 429 940 430L960 431L960 541L940 541C920 541 880 541 840 541C800 541 760 541 720 541C680 541 640 541 600 541C560 541 520 541 480 541C440 541 400 541 360 541C320 541 280 541 240 541C200 541 160 541 120 541C80 541 40 541 20 541L0 541Z" fill="#001220"></path></svg>