<svg id="visual" viewBox="0 0 960 200" width="960" height="200" xmlns="http://www.w3.org/2000/svg" xmlns:xlink="http://www.w3.org/1999/xlink" version="1.1"><rect x="0" y="0" width="960" height="200" fill="#4FACF7"></rect><path d="M0 69L26.7 63.8C53.3 58.7 106.7 48.3 160 47C213.3 45.7 266.7 53.3 320 59.3C373.3 65.3 426.7 69.7 480 74.5C533.3 79.3 586.7 84.7 640 81.2C693.3 77.7 746.7 65.3 800 59C853.3 52.7 906.7 52.3 933.3 52.2L960 52L960 201L933.3 201C906.7 201 853.3 201 800 201C746.7 201 693.3 201 640 201C586.7 201 533.3 201 480 201C426.7 201 373.3 201 320 201C266.7 201 213.3 201 160 201C106.7 201 53.3 201 26.7 201L0 201Z" fill="#4facf7"></path><path d="M0 84L26.7 88.5C53.3 93 106.7 102 160 106.2C213.3 110.3 266.7 109.7 320 113.2C373.3 116.7 426.7 124.3 480 127C533.3 129.7 586.7 127.3 640 128.2C693.3 129 746.7 133 800 128.5C853.3 124 906.7 111 933.3 104.5L960 98L960 201L933.3 201C906.7 201 853.3 201 800 201C746.7 201 693.3 201 640 201C586.7 201 533.3 201 480 201C426.7 201 373.3 201 320 201C266.7 201 213.3 201 160 201C106.7 201 53.3 201 26.7 201L0 201Z" fill="#008cff"></path><path d="M0 126L26.7 129C53.3 132 106.7 138 160 144.7C213.3 151.3 266.7 158.7 320 155.7C373.3 152.7 426.7 139.3 480 135.7C533.3 132 586.7 138 640 143.5C693.3 149 746.7 154 800 158.5C853.3 163 906.7 167 933.3 169L960 171L960 201L933.3 201C906.7 201 853.3 201 800 201C746.7 201 693.3 201 640 201C586.7 201 533.3 201 480 201C426.7 201 373.3 201 320 201C266.7 201 213.3 201 160 201C106.7 201 53.3 201 26.7 201L0 201Z" fill="#0066ff"></path></svg>