<svg id="visual" viewBox="0 0 960 200" width="960" height="200" xmlns="http://www.w3.org/2000/svg" xmlns:xlink="http://www.w3.org/1999/xlink" version="1.1"><rect x="0" y="0" width="960" height="200" fill="#0066FF"></rect><path d="M0 79L22.8 83.8C45.7 88.7 91.3 98.3 137 102.7C182.7 107 228.3 106 274 95.2C319.7 84.3 365.3 63.7 411.2 59.3C457 55 503 67 548.8 69C594.7 71 640.3 63 686 60.3C731.7 57.7 777.3 60.3 823 68.2C868.7 76 914.3 89 937.2 95.5L960 102L960 201L937.2 201C914.3 201 868.7 201 823 201C777.3 201 731.7 201 686 201C640.3 201 594.7 201 548.8 201C503 201 457 201 411.2 201C365.3 201 319.7 201 274 201C228.3 201 182.7 201 137 201C91.3 201 45.7 201 22.8 201L0 201Z" fill="#0066ff"></path><path d="M0 99L22.8 97.5C45.7 96 91.3 93 137 91.7C182.7 90.3 228.3 90.7 274 92.7C319.7 94.7 365.3 98.3 411.2 104.2C457 110 503 118 548.8 123.5C594.7 129 640.3 132 686 128C731.7 124 777.3 113 823 104.8C868.7 96.7 914.3 91.3 937.2 88.7L960 86L960 201L937.2 201C914.3 201 868.7 201 823 201C777.3 201 731.7 201 686 201C640.3 201 594.7 201 548.8 201C503 201 457 201 411.2 201C365.3 201 319.7 201 274 201C228.3 201 182.7 201 137 201C91.3 201 45.7 201 22.8 201L0 201Z" fill="#008cff"></path><path d="M0 173L22.8 168.7C45.7 164.3 91.3 155.7 137 149.5C182.7 143.3 228.3 139.7 274 143.3C319.7 147 365.3 158 411.2 156.8C457 155.7 503 142.3 548.8 140.2C594.7 138 640.3 147 686 150.3C731.7 153.7 777.3 151.3 823 149.5C868.7 147.7 914.3 146.3 937.2 145.7L960 145L960 201L937.2 201C914.3 201 868.7 201 823 201C777.3 201 731.7 201 686 201C640.3 201 594.7 201 548.8 201C503 201 457 201 411.2 201C365.3 201 319.7 201 274 201C228.3 201 182.7 201 137 201C91.3 201 45.7 201 22.8 201L0 201Z" fill="#4facf7"></path></svg>