<svg id="visual" viewBox="0 0 960 200" width="960" height="200" xmlns="http://www.w3.org/2000/svg" xmlns:xlink="http://www.w3.org/1999/xlink" version="1.1"><rect x="0" y="0" width="960" height="200" fill="#4FACF7"></rect><path d="M0 48L26.7 56.2C53.3 64.3 106.7 80.7 160 80.7C213.3 80.7 266.7 64.3 320 62.7C373.3 61 426.7 74 480 83C533.3 92 586.7 97 640 100.8C693.3 104.7 746.7 107.3 800 98.5C853.3 89.7 906.7 69.3 933.3 59.2L960 49L960 201L933.3 201C906.7 201 853.3 201 800 201C746.7 201 693.3 201 640 201C586.7 201 533.3 201 480 201C426.7 201 373.3 201 320 201C266.7 201 213.3 201 160 201C106.7 201 53.3 201 26.7 201L0 201Z" fill="#4facf7"></path><path d="M0 136L26.7 128.5C53.3 121 106.7 106 160 106.5C213.3 107 266.7 123 320 121.2C373.3 119.3 426.7 99.7 480 90C533.3 80.3 586.7 80.7 640 85.2C693.3 89.7 746.7 98.3 800 99.8C853.3 101.3 906.7 95.7 933.3 92.8L960 90L960 201L933.3 201C906.7 201 853.3 201 800 201C746.7 201 693.3 201 640 201C586.7 201 533.3 201 480 201C426.7 201 373.3 201 320 201C266.7 201 213.3 201 160 201C106.7 201 53.3 201 26.7 201L0 201Z" fill="#008cff"></path><path d="M0 173L26.7 168.3C53.3 163.7 106.7 154.3 160 147C213.3 139.7 266.7 134.3 320 138.8C373.3 143.3 426.7 157.7 480 160C533.3 162.3 586.7 152.7 640 149.3C693.3 146 746.7 149 800 153C853.3 157 906.7 162 933.3 164.5L960 167L960 201L933.3 201C906.7 201 853.3 201 800 201C746.7 201 693.3 201 640 201C586.7 201 533.3 201 480 201C426.7 201 373.3 201 320 201C266.7 201 213.3 201 160 201C106.7 201 53.3 201 26.7 201L0 201Z" fill="#0066ff"></path></svg>