<svg id="visual" viewBox="0 0 960 200" width="960" height="200" xmlns="http://www.w3.org/2000/svg" xmlns:xlink="http://www.w3.org/1999/xlink" version="1.1"><rect x="0" y="0" width="960" height="200" fill="#0066FF"></rect><path d="M0 101L22.8 93.7C45.7 86.3 91.3 71.7 137 71.7C182.7 71.7 228.3 86.3 274 84.3C319.7 82.3 365.3 63.7 411.2 59.2C457 54.7 503 64.3 548.8 63.2C594.7 62 640.3 50 686 51.5C731.7 53 777.3 68 823 75C868.7 82 914.3 81 937.2 80.5L960 80L960 201L937.2 201C914.3 201 868.7 201 823 201C777.3 201 731.7 201 686 201C640.3 201 594.7 201 548.8 201C503 201 457 201 411.2 201C365.3 201 319.7 201 274 201C228.3 201 182.7 201 137 201C91.3 201 45.7 201 22.8 201L0 201Z" fill="#0066ff"></path><path d="M0 86L22.8 94.7C45.7 103.3 91.3 120.7 137 123.8C182.7 127 228.3 116 274 111.8C319.7 107.7 365.3 110.3 411.2 112.5C457 114.7 503 116.3 548.8 114C594.7 111.7 640.3 105.3 686 99C731.7 92.7 777.3 86.3 823 86.5C868.7 86.7 914.3 93.3 937.2 96.7L960 100L960 201L937.2 201C914.3 201 868.7 201 823 201C777.3 201 731.7 201 686 201C640.3 201 594.7 201 548.8 201C503 201 457 201 411.2 201C365.3 201 319.7 201 274 201C228.3 201 182.7 201 137 201C91.3 201 45.7 201 22.8 201L0 201Z" fill="#008cff"></path><path d="M0 143L22.8 142C45.7 141 91.3 139 137 136.3C182.7 133.7 228.3 130.3 274 131C319.7 131.7 365.3 136.3 411.2 143.8C457 151.3 503 161.7 548.8 160C594.7 158.3 640.3 144.7 686 141C731.7 137.3 777.3 143.7 823 148C868.7 152.3 914.3 154.7 937.2 155.8L960 157L960 201L937.2 201C914.3 201 868.7 201 823 201C777.3 201 731.7 201 686 201C640.3 201 594.7 201 548.8 201C503 201 457 201 411.2 201C365.3 201 319.7 201 274 201C228.3 201 182.7 201 137 201C91.3 201 45.7 201 22.8 201L0 201Z" fill="#4facf7"></path></svg>