<svg id="visual" viewBox="0 0 960 200" width="960" height="200" xmlns="http://www.w3.org/2000/svg" xmlns:xlink="http://www.w3.org/1999/xlink" version="1.1"><rect x="0" y="0" width="960" height="200" fill="#001220"></rect><path d="M0 82L26.7 82.5C53.3 83 106.7 84 160 81.3C213.3 78.7 266.7 72.3 320 69.3C373.3 66.3 426.7 66.7 480 73.3C533.3 80 586.7 93 640 88.7C693.3 84.3 746.7 62.7 800 53.5C853.3 44.3 906.7 47.7 933.3 49.3L960 51L960 201L933.3 201C906.7 201 853.3 201 800 201C746.7 201 693.3 201 640 201C586.7 201 533.3 201 480 201C426.7 201 373.3 201 320 201C266.7 201 213.3 201 160 201C106.7 201 53.3 201 26.7 201L0 201Z" fill="#4facf7"></path><path d="M0 141L26.7 137.7C53.3 134.3 106.7 127.7 160 119.3C213.3 111 266.7 101 320 100C373.3 99 426.7 107 480 107.5C533.3 108 586.7 101 640 97.5C693.3 94 746.7 94 800 92.2C853.3 90.3 906.7 86.7 933.3 84.8L960 83L960 201L933.3 201C906.7 201 853.3 201 800 201C746.7 201 693.3 201 640 201C586.7 201 533.3 201 480 201C426.7 201 373.3 201 320 201C266.7 201 213.3 201 160 201C106.7 201 53.3 201 26.7 201L0 201Z" fill="#008cff"></path><path d="M0 167L26.7 161.7C53.3 156.3 106.7 145.7 160 143C213.3 140.3 266.7 145.7 320 147.3C373.3 149 426.7 147 480 147.3C533.3 147.7 586.7 150.3 640 153.3C693.3 156.3 746.7 159.7 800 163C853.3 166.3 906.7 169.7 933.3 171.3L960 173L960 201L933.3 201C906.7 201 853.3 201 800 201C746.7 201 693.3 201 640 201C586.7 201 533.3 201 480 201C426.7 201 373.3 201 320 201C266.7 201 213.3 201 160 201C106.7 201 53.3 201 26.7 201L0 201Z" fill="#0066ff"></path></svg>