<svg id="visual" viewBox="0 0 960 200" width="960" height="200" xmlns="http://www.w3.org/2000/svg" xmlns:xlink="http://www.w3.org/1999/xlink" version="1.1"><rect x="0" y="0" width="960" height="200" fill="#0066FF"></rect><path d="M0 99L22.8 98C45.7 97 91.3 95 137 85.8C182.7 76.7 228.3 60.3 274 58.5C319.7 56.7 365.3 69.3 411.2 69.7C457 70 503 58 548.8 53.8C594.7 49.7 640.3 53.3 686 63.2C731.7 73 777.3 89 823 86C868.7 83 914.3 61 937.2 50L960 39L960 201L937.2 201C914.3 201 868.7 201 823 201C777.3 201 731.7 201 686 201C640.3 201 594.7 201 548.8 201C503 201 457 201 411.2 201C365.3 201 319.7 201 274 201C228.3 201 182.7 201 137 201C91.3 201 45.7 201 22.8 201L0 201Z" fill="#0066ff"></path><path d="M0 118L22.8 112.5C45.7 107 91.3 96 137 96.8C182.7 97.7 228.3 110.3 274 112C319.7 113.7 365.3 104.3 411.2 104.8C457 105.3 503 115.7 548.8 113.3C594.7 111 640.3 96 686 93.7C731.7 91.3 777.3 101.7 823 110.3C868.7 119 914.3 126 937.2 129.5L960 133L960 201L937.2 201C914.3 201 868.7 201 823 201C777.3 201 731.7 201 686 201C640.3 201 594.7 201 548.8 201C503 201 457 201 411.2 201C365.3 201 319.7 201 274 201C228.3 201 182.7 201 137 201C91.3 201 45.7 201 22.8 201L0 201Z" fill="#008cff"></path><path d="M0 153L22.8 149.2C45.7 145.3 91.3 137.7 137 139.2C182.7 140.7 228.3 151.3 274 158.2C319.7 165 365.3 168 411.2 164.7C457 161.3 503 151.7 548.8 145.3C594.7 139 640.3 136 686 140.8C731.7 145.7 777.3 158.3 823 161.7C868.7 165 914.3 159 937.2 156L960 153L960 201L937.2 201C914.3 201 868.7 201 823 201C777.3 201 731.7 201 686 201C640.3 201 594.7 201 548.8 201C503 201 457 201 411.2 201C365.3 201 319.7 201 274 201C228.3 201 182.7 201 137 201C91.3 201 45.7 201 22.8 201L0 201Z" fill="#4facf7"></path></svg>