<svg id="visual" viewBox="0 0 960 200" width="960" height="200" xmlns="http://www.w3.org/2000/svg" xmlns:xlink="http://www.w3.org/1999/xlink" version="1.1"><rect x="0" y="0" width="960" height="200" fill="#0066FF"></rect><path d="M0 76L22.8 75.2C45.7 74.3 91.3 72.7 137 77.3C182.7 82 228.3 93 274 88.3C319.7 83.7 365.3 63.3 411.2 59.2C457 55 503 67 548.8 66.5C594.7 66 640.3 53 686 56.7C731.7 60.3 777.3 80.7 823 90.7C868.7 100.7 914.3 100.3 937.2 100.2L960 100L960 201L937.2 201C914.3 201 868.7 201 823 201C777.3 201 731.7 201 686 201C640.3 201 594.7 201 548.8 201C503 201 457 201 411.2 201C365.3 201 319.7 201 274 201C228.3 201 182.7 201 137 201C91.3 201 45.7 201 22.8 201L0 201Z" fill="#fa7268"></path><path d="M0 87L22.8 94.7C45.7 102.3 91.3 117.7 137 126.8C182.7 136 228.3 139 274 130.3C319.7 121.7 365.3 101.3 411.2 91.7C457 82 503 83 548.8 85C594.7 87 640.3 90 686 95.8C731.7 101.7 777.3 110.3 823 113.3C868.7 116.3 914.3 113.7 937.2 112.3L960 111L960 201L937.2 201C914.3 201 868.7 201 823 201C777.3 201 731.7 201 686 201C640.3 201 594.7 201 548.8 201C503 201 457 201 411.2 201C365.3 201 319.7 201 274 201C228.3 201 182.7 201 137 201C91.3 201 45.7 201 22.8 201L0 201Z" fill="#e34c67"></path><path d="M0 132L22.8 133.8C45.7 135.7 91.3 139.3 137 139C182.7 138.7 228.3 134.3 274 133.7C319.7 133 365.3 136 411.2 142.2C457 148.3 503 157.7 548.8 160.5C594.7 163.3 640.3 159.7 686 155.7C731.7 151.7 777.3 147.3 823 143.8C868.7 140.3 914.3 137.7 937.2 136.3L960 135L960 201L937.2 201C914.3 201 868.7 201 823 201C777.3 201 731.7 201 686 201C640.3 201 594.7 201 548.8 201C503 201 457 201 411.2 201C365.3 201 319.7 201 274 201C228.3 201 182.7 201 137 201C91.3 201 45.7 201 22.8 201L0 201Z" fill="#c62368"></path></svg>